<?xml version="1.0" encoding="utf-8"?>
<!-- Generator: Adobe Illustrator 24.0.1, SVG Export Plug-In . SVG Version: 6.00 Build 0)  -->
<svg version="1.1" id="Layer_1" xmlns="http://www.w3.org/2000/svg" xmlns:xlink="http://www.w3.org/1999/xlink" x="0px" y="0px"
	 viewBox="0 0 85 85.1" style="enable-background:new 0 0 85 85.1;" xml:space="preserve">
<style type="text/css">
	.st0{fill:url(#Path_1_);}
</style>
<title>Oritec -  Logo</title>
<desc>Created with Sketch.</desc>
<g id="Oritec----Logo">
	<g id="Logo-v2" transform="translate(73.000000, 43.000000)">
		
			<linearGradient id="Path_1_" gradientUnits="userSpaceOnUse" x1="-736.5915" y1="416.3896" x2="-736.6053" y2="415.294" gradientTransform="matrix(85 0 0 -85 62580.5977 35347.6016)">
			<stop  offset="0" style="stop-color:#0FFCE2"/>
			<stop  offset="1" style="stop-color:#0958D5"/>
		</linearGradient>
		<path id="Path" class="st0" d="M9.5,27.6c-3.1-3.1-8.3-3.3-11.6-0.3l-14.1-14.2c1.4-1.6,2.3-3.6,2.4-5.9H1.8
			c0.3,1.9,1.7,3.1,3.6,3.1c2,0,3.6-1.6,3.6-3.6S7.4,3.1,5.4,3.1C3.5,3.1,2,4.5,1.8,6.2H-14c-0.1-2.6-1.3-5-3.1-6.6l16.2-16.1
			c2.4,2.1,6,2,8.4-0.3c2.4-2.4,2.4-6.3,0-8.7s-6.3-2.4-8.7,0c-2.3,2.3-2.4,6-0.3,8.4L-17.7-0.7c-1.4-1-3.1-1.7-5.1-1.9v-25.2
			c4-0.3,7.2-3.6,7.2-7.6c0-4.1-3.4-7.6-7.6-7.6s-7.6,3.5-7.6,7.6c0,4,3.1,7.3,7.2,7.6v25.4c-2.3,0.1-4.3,1-5.9,2.4l-14.2-14.1
			c1.4-1.7,1.4-4.4-0.3-6c-1.7-1.7-4.6-1.7-6.3,0c-1.7,1.7-1.7,4.6,0,6.3s4.3,1.7,6,0.3l14.2,14.1c-1.4,1.6-2.3,3.6-2.4,5.9h-26.7
			c-0.3-3.6-3.1-6.4-6.9-6.4c-3.7,0-6.9,3-6.9,6.9s3,6.9,6.9,6.9c3.6,0,6.6-2.9,6.9-6.4h26.7c0.1,1.9,0.7,3.7,1.9,5.1l-10.4,10
			c-3-2.7-7.6-2.6-10.4,0.3c-3,3-3,7.7,0,10.7s7.7,3,10.7,0c2.9-2.9,3-7.4,0.3-10.4l10.2-10.1c1.6,1.9,4,3,6.6,3.1v10.6
			c-2,0.4-3.6,2.3-3.6,4.4c0,2.4,2,4.4,4.4,4.4s4.4-2,4.4-4.4s-2-4.4-4.4-4.4l0,0V16.3c2.3-0.1,4.3-1,5.9-2.4L-2.7,28
			c-3,3.3-2.9,8.4,0.3,11.6c3.3,3.3,8.6,3.3,12,0C12.8,36.1,12.8,30.9,9.5,27.6z"/>
	</g>
</g>
</svg>
